<?xml version="1.0" encoding="utf-8"?>
<!-- Generator: Adobe Illustrator 19.0.1, SVG Export Plug-In . SVG Version: 6.00 Build 0)  -->
<svg version="1.1" id="Слой_1" xmlns="http://www.w3.org/2000/svg" xmlns:xlink="http://www.w3.org/1999/xlink" x="0px" y="0px"
	 viewBox="0 0 38 44" style="enable-background:new 0 0 38 44;" xml:space="preserve">
<style type="text/css">
	.st0{fill:#CCCCCC;}
</style>
<g id="layer1" transform="translate(0,-1008.3622)">
	<path id="path13319-01" class="st0" d="M19,1008.4c-7.7,0-14,6.3-14,14l0,0c0,7.7,6.3,14,14,14c0,0,0,0,0,0c7.7,0,14-6.3,14-14
		S26.7,1008.4,19,1008.4L19,1008.4z M19,1040.1c-6.9,0-13.5,1.3-19,3.5c4.6,5.4,11.4,8.7,19,8.7c7.6,0,14.4-3.4,19-8.7
		C32.6,1041.3,25.9,1040.1,19,1040.1z"/>
</g>
</svg>
