<?xml version="1.0" encoding="utf-8"?>
<!-- Generator: Adobe Illustrator 19.0.1, SVG Export Plug-In . SVG Version: 6.00 Build 0)  -->
<svg version="1.1" id="Слой_1" xmlns="http://www.w3.org/2000/svg" xmlns:xlink="http://www.w3.org/1999/xlink" x="0px" y="0px"
	 viewBox="-292.3 414.4 19 12.8" style="enable-background:new -292.3 414.4 19 12.8;" xml:space="preserve">
<path d="M-274.2,420.7l-3.8-6.3l-2.6,1.6l0.8,1.3l1.4-0.8l1.4,2.4c-0.3,0-0.4,0-0.7,0c-1.7,0-3,0.9-3.7,2.4h-3.1
	c-0.7-1.4-2-2.4-3.7-2.4c-0.3,0-0.4,0-0.7,0l1.4-2.4l1.4,0.8l0.8-1.3l-2.6-1.6l-3.8,6.3c-0.5,0.7-0.8,1.4-0.8,2.4
	c0,2.4,1.8,4.2,4.2,4.2c2.4,0,4.2-1.8,4.2-4.2c0,0,0-0.3,0-0.4h2.2c0,0,0,0.3,0,0.4c0,2.4,1.8,4.2,4.2,4.2c2.4,0,4.2-1.8,4.2-4.2
	C-273.4,422.1-273.6,421.3-274.2,420.7L-274.2,420.7z M-288.1,425.6c-1.4,0-2.6-1.2-2.6-2.6s1.2-2.6,2.6-2.6c1.4,0,2.6,1.2,2.6,2.6
	S-286.6,425.6-288.1,425.6z M-277.6,425.6c-1.4,0-2.6-1.2-2.6-2.6s1.2-2.6,2.6-2.6s2.6,1.2,2.6,2.6S-276,425.6-277.6,425.6z"/>
</svg>
