<?xml version="1.0" encoding="utf-8"?>
<!-- Generator: Adobe Illustrator 19.0.1, SVG Export Plug-In . SVG Version: 6.00 Build 0)  -->
<svg version="1.1" id="Слой_1" xmlns="http://www.w3.org/2000/svg" xmlns:xlink="http://www.w3.org/1999/xlink" x="0px" y="0px"
	 viewBox="-292.3 411.6 19 19" style="enable-background:new -292.3 411.6 19 19;" xml:space="preserve">
<path d="M-282.8,411.6c-5.3,0-9.5,4.2-9.5,9.5s4.2,9.5,9.5,9.5s9.5-4.2,9.5-9.5S-277.5,411.6-282.8,411.6z M-282.8,429
	c-4.4,0-7.9-3.6-7.9-7.9s3.6-7.9,7.9-7.9s7.9,3.6,7.9,7.9S-278.4,429-282.8,429z M-282.8,415.5c-0.7,0-1.2,0.5-1.2,1.2
	c0,0.7,0.5,1.2,1.2,1.2s1.2-0.5,1.2-1.2C-281.6,416.1-282.1,415.5-282.8,415.5z M-283.6,426.6h1.6v-7.1h-1.6V426.6z"/>
</svg>
