<?xml version="1.0" encoding="utf-8"?>
<!-- Generator: Adobe Illustrator 19.0.1, SVG Export Plug-In . SVG Version: 6.00 Build 0)  -->
<svg version="1.1" id="Слой_1" xmlns="http://www.w3.org/2000/svg" xmlns:xlink="http://www.w3.org/1999/xlink" x="0px" y="0px"
	 viewBox="0 0 20 30" style="enable-background:new 0 0 19.9 28.7;" xml:space="preserve">
<path d="M14.4,9l5.5-8.2L18.7,0l-5.5,8.2c-1-0.5-2.1-0.8-3.4-0.8c-4.1,0-7.2,3.1-7.2,6.9c0,2.3,1.1,4.2,2.7,5.5L0,27.9l1.2,0.8
	l5.5-8.1c0.9,0.4,2,0.7,3.2,0.7c4.1,0,7.2-3.1,7.2-6.9h0C17,12.2,16,10.2,14.4,9z M10,18c-2,0-3.7-1.6-3.7-3.7c0-2,1.6-3.7,3.7-3.7
	c2,0,3.7,1.6,3.7,3.7C13.6,16.4,12,18,10,18z"/>
</svg>
