<?xml version="1.0" encoding="utf-8"?>
<!-- Generator: Adobe Illustrator 19.0.1, SVG Export Plug-In . SVG Version: 6.00 Build 0)  -->
<svg version="1.1" id="Слой_1" xmlns="http://www.w3.org/2000/svg" xmlns:xlink="http://www.w3.org/1999/xlink" x="0px" y="0px"
	 viewBox="-241 405.9 112 30" style="enable-background:new -241 405.9 112 30;" xml:space="preserve">
<path d="M-157.5,413.6h-3.3c-0.1,0-0.2,0.1-0.3,0.2l-2.8,4.5c-0.1,0.2-0.5,0.2-0.6,0l-2.8-4.5c-0.1-0.1-0.2-0.2-0.3-0.2h-3.3
	c-0.2,0-0.4,0.2-0.4,0.4v12.6c0,0.2,0.2,0.4,0.4,0.4h2.9c0.2,0,0.4-0.2,0.4-0.4v-6.1c0-0.3,0.5-0.5,0.6-0.2l2.7,4.2h0.1l2.8-4.2
	c0.2-0.3,0.6-0.2,0.6,0.2v6.1c0,0.2,0.2,0.4,0.4,0.4h3c0.2,0,0.4-0.2,0.4-0.4V414C-157.2,413.8-157.3,413.6-157.5,413.6
	 M-132.7,418.5c0-1.1-0.8-1.7-2.1-1.7h-1.4c-0.2,0-0.4,0.2-0.4,0.4v2.7c0,0.2,0.2,0.4,0.4,0.4h1.4
	C-133.5,420.2-132.7,419.5-132.7,418.5 M-129,418.3c0,3.1-2.4,4.8-5.7,4.8h-1.5c-0.2,0-0.4,0.2-0.4,0.4v3.1c0,0.2-0.2,0.4-0.4,0.4
	h-3c-0.2,0-0.4-0.2-0.4-0.4V414c0-0.2,0.2-0.4,0.4-0.4h5.3C-131.2,413.6-129,415.3-129,418.3 M-142.9,413.6h-2.9
	c-0.1,0-0.2,0.1-0.3,0.2l-4.4,6.4c-0.2,0.3-0.6,0.1-0.6-0.2v-6c0-0.2-0.2-0.4-0.4-0.4h-2.9c-0.2,0-0.4,0.2-0.4,0.4v12.6
	c0,0.2,0.2,0.4,0.4,0.4h2.9c0.1,0,0.2-0.1,0.3-0.2l4.4-6.4c0.2-0.3,0.6-0.1,0.6,0.2v6c0,0.2,0.2,0.4,0.4,0.4h2.9
	c0.2,0,0.4-0.2,0.4-0.4V414C-142.6,413.8-142.7,413.6-142.9,413.6 M-214.9,413.6h-3.2c-0.1,0-0.3,0.1-0.3,0.2l-2.4,5.4
	c-0.1,0.3-0.5,0.3-0.6,0l-2.6-5.4c-0.1-0.1-0.2-0.2-0.3-0.2h-3.3c-0.4,0-0.6,0.3-0.4,0.5l4.8,9.1c0.1,0.1,0,0.3-0.1,0.4
	c-0.3,0.3-0.7,0.4-1,0.4s-0.8-0.1-1.2-0.3c-0.2-0.1-0.4,0-0.5,0.1l-1,2.1c-0.1,0.2,0,0.4,0.1,0.5c0.8,0.4,1.8,0.7,2.9,0.7
	c2.1,0,3.3-1,4.5-3.3l4.9-9.6C-214.5,413.9-214.6,413.6-214.9,413.6 M-188.3,424.5c0.1-0.2,0.1-0.4-0.1-0.5l-2.2-1.6
	c-0.1-0.1-0.3-0.1-0.5,0c-0.7,0.8-1.5,1.4-2.8,1.4c-1.9,0-3.2-1.6-3.2-3.6s1.3-3.6,3.2-3.6c1.2,0,2,0.5,2.7,1.3
	c0.1,0.1,0.3,0.1,0.5,0l2.2-1.7c0.2-0.1,0.2-0.3,0.1-0.5c-1.2-1.5-2.8-2.5-5.4-2.5c-4,0-7,3-7,6.9c0,4,3.1,6.9,6.9,6.9
	C-191.2,427.2-189.5,426-188.3,424.5 M-205.6,418.5c0-1.1-0.8-1.7-2.1-1.7h-1.4c-0.2,0-0.4,0.2-0.4,0.4v2.7c0,0.2,0.2,0.4,0.4,0.4
	h1.4C-206.4,420.2-205.6,419.5-205.6,418.5 M-201.9,418.3c0,3.1-2.4,4.8-5.7,4.8h-1.5c-0.2,0-0.4,0.2-0.4,0.4v3.1
	c0,0.2-0.2,0.4-0.4,0.4h-3c-0.2,0-0.4-0.2-0.4-0.4V414c0-0.2,0.2-0.4,0.4-0.4h5.3C-204.1,413.6-201.9,415.3-201.9,418.3
	 M-228.6,426.4c0.2,0.2,0,0.6-0.3,0.6h-3.5c-0.1,0-0.2-0.1-0.3-0.2l-3-4.4c-0.1-0.2-0.4-0.2-0.6,0l-1,1.1c-0.1,0.1-0.1,0.1-0.1,0.2
	v3c0,0.2-0.2,0.4-0.4,0.4h-3c0-0.2-0.2-0.3-0.2-0.5V414c0-0.2,0.2-0.4,0.4-0.4h3c0.2,0,0.4,0.2,0.4,0.4v4.1c0,0.3,0.4,0.5,0.6,0.2
	l3.9-4.5c0.1-0.1,0.2-0.1,0.3-0.1h3.4c0.3,0,0.5,0.4,0.3,0.6l-4.3,4.9c-0.1,0.1-0.1,0.3,0,0.4L-228.6,426.4L-228.6,426.4z"/>
</svg>
