<?xml version="1.0" encoding="utf-8"?>
<!-- Generator: Adobe Illustrator 19.0.1, SVG Export Plug-In . SVG Version: 6.00 Build 0)  -->
<svg version="1.1" id="Слой_1" xmlns="http://www.w3.org/2000/svg" xmlns:xlink="http://www.w3.org/1999/xlink" x="0px" y="0px"
	 viewBox="-292.3 413 19 15.7" style="enable-background:new -292.3 413 19 15.7;" xml:space="preserve">
<path d="M-282.8,414.4c0.7,0,1.1,0.5,1.1,1.1c0,0.3-0.1,0.5-0.3,0.7l-0.1,0.3l-0.3,0.1c-0.1,0-0.3,0.1-0.4,0.1s-0.3-0.1-0.4-0.1
	l-0.3-0.1l-0.3-0.3c0-0.1-0.1-0.3-0.1-0.7C-283.9,415-283.5,414.4-282.8,414.4 M-275.8,417.2c0.7,0,1.1,0.5,1.1,1.1
	s-0.4,1.1-0.9,1.1h-0.4l-0.3-0.1l0,0l0,0l-0.3-0.1l-0.1-0.3c-0.1-0.1-0.1-0.4-0.1-0.5C-277,417.7-276.5,417.2-275.8,417.2
	 M-289.8,417.2c0.7,0,1.1,0.5,1.1,1.1c0,0.1,0,0.4-0.1,0.5v0.4l-0.4,0.1l0,0l0,0l-0.3,0.1h-0.4c-0.5-0.1-0.9-0.5-0.9-1.2
	C-290.8,417.7-290.3,417.2-289.8,417.2 M-282.8,413c-1.5,0-2.5,1.2-2.5,2.5c0,0.5,0.1,1.1,0.5,1.5l-2.1,3.2l-0.5-0.5
	c0.1-0.4,0.3-0.8,0.3-1.3c0-1.3-1.2-2.5-2.6-2.5c-1.5,0-2.5,1.2-2.5,2.5c0,1.3,0.9,2.4,2.2,2.6v7.8h14.6v-7.8
	c1.2-0.3,2.1-1.3,2.1-2.6c0-1.5-1.2-2.5-2.5-2.5c-1.3,0-2.6,1.2-2.6,2.5c0,0.4,0.1,0.8,0.3,1.2l-0.7,0.5l-1.8-2.9
	c0.3-0.5,0.4-0.9,0.4-1.6C-280.3,414.2-281.3,413-282.8,413L-282.8,413L-282.8,413z M-282.8,423.4l-2.9-2.4l2-3
	c0.3,0.1,0.7,0.1,0.9,0.1s0.7,0,0.9-0.1l2,3L-282.8,423.4L-282.8,423.4z M-288.6,427.2v-6.6h0.1l5.7,4.8l5.7-4.8h0.1v6.6H-288.6
	L-288.6,427.2z"/>
</svg>
